<svg width="32" height="32" viewBox="0 0 32 32" fill="none" xmlns="http://www.w3.org/2000/svg">
<path d="M21.534 9.30884C21.5149 9.65679 21.4927 9.86651 21.4927 10.0746C21.4911 14.2564 21.5054 18.4381 21.4768 22.6198C21.472 23.2283 21.6881 23.4555 22.2426 23.5524C23.0751 23.6986 24.0077 23.7129 24.7004 24.118C25.9683 24.86 27.287 24.5486 28.585 24.6868C28.8535 24.7154 29.0855 25.0824 29.3334 25.2937C29.0839 25.505 28.8567 25.7592 28.5755 25.9118C28.4119 26.0007 28.1608 25.934 27.9495 25.934C19.9309 25.934 11.9106 25.9356 3.89198 25.9308C3.38515 25.9308 2.68449 26.0865 2.66701 25.3144C2.64954 24.539 3.33907 24.6677 3.85702 24.6614C4.25104 24.6566 4.64506 24.6614 5.14871 24.6614C5.2218 23.9035 5.29488 23.179 5.36319 22.453C5.54749 20.5035 5.87003 18.5556 5.87479 16.6062C5.87956 14.6043 5.57451 12.6008 5.40133 10.5989C5.32984 9.7823 5.29806 8.95613 5.14077 8.15538C5.07245 7.80902 4.71973 7.52462 4.51795 7.19733C4.35749 6.93677 4.2288 6.65714 4.08581 6.38546C4.36702 6.24882 4.65777 5.9819 4.92946 6.00097C5.69526 6.05499 6.29583 6.72546 6.39433 7.63743C6.6263 9.79342 6.84554 11.9526 6.99489 14.1165C7.04891 14.9014 7.25386 15.2065 8.10546 15.1715C9.95481 15.0968 11.8105 15.1095 13.6615 15.1651C14.0364 15.1763 14.61 15.4591 14.7133 15.7498C14.834 16.0914 14.5401 16.5808 14.4257 17.005C14.3494 17.2894 14.189 17.5817 14.2112 17.8582C14.3812 19.9141 14.5814 21.9684 14.7959 24.0195C14.8181 24.2372 14.9881 24.5994 15.12 24.6137C15.5156 24.6566 15.9382 24.6058 16.3259 24.5025C16.5817 24.4358 16.7771 24.1434 17.0329 24.0767C17.902 23.8511 18.7822 23.6604 19.6655 23.4952C20.0818 23.4173 20.2264 23.233 20.2248 22.8073C20.2137 18.5191 20.2105 14.2325 20.2311 9.94436C20.2343 9.38034 19.9754 9.29295 19.5067 9.29613C17.8654 9.30884 16.2242 9.3009 14.5846 9.29137C14.0555 9.28819 13.7203 9.02445 13.7219 8.47314C13.7234 7.93136 14.0396 7.65808 14.5766 7.64378C14.8149 7.63743 15.0533 7.63266 15.2916 7.63266C19.0761 7.62472 22.8606 7.61836 26.6451 7.61201C26.7516 7.61201 26.8564 7.61201 26.9629 7.61201C27.5301 7.61201 27.9781 7.7979 27.9924 8.44295C28.0051 9.08959 27.5762 9.3009 26.9978 9.30249C25.5155 9.30408 24.0331 9.30566 22.5508 9.30725C22.2394 9.30725 21.9264 9.30725 21.5292 9.30725L21.534 9.30884ZM7.15854 17.2052C6.92499 19.7107 6.69779 22.1384 6.47059 24.5803H13.5233C13.3104 22.213 13.1133 19.9236 12.883 17.6389C12.8671 17.4816 12.6065 17.2258 12.4572 17.2226C10.7174 17.1924 8.97612 17.2036 7.16012 17.2036L7.15854 17.2052Z" fill="#FDBA74"/>
</svg>
