<svg width="32" height="32" viewBox="0 0 32 32" fill="none" xmlns="http://www.w3.org/2000/svg">
<path d="M25.5659 29.3312H5.54205C5.54205 28.9332 5.54205 28.5703 5.54205 28.2073C5.54205 23.0539 5.52968 17.9005 5.55855 12.7451C5.56267 12.0522 5.35027 11.6459 4.76667 11.25C1.86518 9.28062 1.99097 5.69654 5.0162 3.91894C6.85154 2.84248 8.8003 2.74762 10.7614 3.5395C11.312 3.76221 11.7183 3.78283 12.2792 3.5065C14.5022 2.41148 16.7913 2.38055 19.0308 3.45288C19.6556 3.7519 20.1238 3.72922 20.7445 3.48794C22.6809 2.73318 24.5863 2.88372 26.3866 3.94987C29.3623 5.71304 29.4551 9.46415 26.5103 11.2747C25.737 11.7491 25.5452 12.246 25.5494 13.0771C25.5824 18.0593 25.5659 23.0416 25.5659 28.0238C25.5659 28.428 25.5659 28.8322 25.5659 29.3333V29.3312ZM7.35471 26.7391C7.02476 27.7062 7.55474 27.7269 8.17546 27.7248C13.1206 27.7165 18.0657 27.7207 23.0108 27.7145C23.2768 27.7145 23.5429 27.667 23.7738 27.6464C24.2646 26.3761 23.0747 26.8649 22.6479 26.4834C22.6726 26.1864 22.6974 25.8647 22.7242 25.5574C23.151 25.5059 23.481 25.4646 23.8481 25.4193V12.376C23.4851 12.345 23.1634 12.3182 22.7592 12.2832C22.7984 11.714 22.8335 11.2191 22.8541 10.9242C23.8996 10.5262 24.8647 10.32 25.6504 9.8271C27.5022 8.66402 27.4321 6.52554 25.5432 5.42021C24.9699 5.08613 24.277 4.88198 23.615 4.78506C22.1901 4.57678 20.9115 5.01808 19.8474 5.95431C17.3274 3.91894 14.3682 3.73747 11.5616 5.96875C10.4995 5.08201 9.27667 4.64277 7.8682 4.74794C6.01017 4.8861 4.54189 6.00174 4.40166 7.40815C4.25525 8.85787 5.43482 10.1241 7.35059 10.5798C8.67863 10.8953 8.69926 10.9262 8.42499 12.3615H7.29697V25.4193C7.70941 25.4873 8.03729 25.5409 8.43117 25.6049C8.41467 25.9719 8.39818 26.2957 8.38168 26.6318C7.9878 26.671 7.68672 26.7019 7.35265 26.737L7.35471 26.7391Z" fill="#FDBA74"/>
<path d="M19.5711 26.6277V25.5265H20.9383V26.6277H19.5711Z" fill="#FDBA74"/>
<path d="M17.7749 26.6545H16.5108V25.5244H17.7749V26.6545Z" fill="#FDBA74"/>
<path d="M13.3268 26.6298C13.3082 26.2648 13.2917 25.9369 13.2732 25.5265H14.6899V26.6298H13.3268Z" fill="#FDBA74"/>
<path d="M10.2273 26.6153V25.5203H11.5698V26.6153H10.2273Z" fill="#FDBA74"/>
</svg>
