<svg width="220" height="64" viewBox="0 0 220 64" fill="none" xmlns="http://www.w3.org/2000/svg">
<path d="M35.0939 27.99C34.2739 28.98 33.5339 29.88 32.7839 30.78C31.1639 32.72 29.5539 34.67 27.9239 36.6C26.8139 37.91 25.6739 39.18 24.5639 40.49C22.8239 42.55 21.1139 44.63 19.3739 46.69C17.6639 48.71 15.9339 50.71 14.2239 52.74C12.3639 54.96 10.5239 57.19 8.66394 59.41C7.86394 60.37 7.05394 61.33 6.20394 62.25C5.17394 63.36 3.86394 63.63 2.49394 63.12C1.16394 62.62 0.373938 61.59 0.0939383 60.15C-0.226062 58.55 0.283938 57.34 1.43394 56.22C5.04394 52.72 8.60394 49.15 12.1939 45.62C15.6239 42.23 19.0739 38.86 22.5139 35.48C23.7839 34.23 25.0639 32.98 26.3339 31.73C28.2539 29.85 30.1639 27.97 32.1039 26.11C32.4939 25.73 32.5739 25.49 32.1439 25.05C31.3639 24.26 31.1239 23.21 30.9939 22.14C30.7739 20.45 31.4239 19.13 32.5739 17.93C34.8039 15.6 36.9739 13.22 39.1639 10.86C40.6839 9.22 42.2039 7.58 43.7139 5.93C44.8039 4.75 45.8939 3.56 46.9739 2.38C47.6039 2.81 47.6939 3.34 47.2439 3.87C45.8839 5.45 44.5139 7.02 43.1439 8.6C41.0539 11.01 38.9739 13.43 36.8939 15.85C36.5839 16.21 36.2439 16.56 35.9439 16.93C35.5339 17.45 35.7239 18.03 36.3639 18.18C36.8739 18.3 37.3439 18.23 37.7439 17.81C41.8439 13.64 45.9439 9.48 50.0539 5.32C50.6739 5.56 50.8439 6.23 50.4139 6.73C48.5839 8.84 46.7739 10.97 44.9339 13.08C43.6439 14.56 42.3339 16.02 41.0339 17.49C40.4239 18.18 39.8039 18.86 39.2339 19.57C38.9539 19.92 38.6339 20.32 39.0439 20.8C39.4339 21.27 39.9439 21.19 40.4239 21.03C40.6439 20.95 40.8439 20.76 41.0139 20.58C44.7239 16.84 48.4239 13.1 52.1239 9.35C52.4339 9.04 52.6739 8.66 53.0039 8.38C53.1139 8.28 53.5439 8.34 53.5539 8.38C53.6239 8.76 53.8039 9.29 53.6239 9.51C52.4739 10.94 51.2239 12.29 50.0239 13.68C48.7939 15.1 47.5939 16.54 46.3639 17.96C45.3939 19.08 44.4039 20.18 43.4239 21.3C42.9739 21.82 42.4939 22.32 42.1139 22.89C41.7539 23.42 42.0239 23.92 42.6639 24.03C43.2039 24.12 43.6839 24.02 44.0939 23.59C46.9039 20.72 49.7339 17.87 52.5539 15C53.8139 13.72 55.0339 12.4 56.2639 11.12C56.9939 11.47 57.1139 12.11 56.5939 12.68C56.0639 13.27 55.5139 13.85 54.9739 14.43C53.5639 15.92 52.1539 17.41 50.7539 18.91C48.5739 21.25 46.4139 23.61 44.2139 25.94C43.2439 26.97 42.3139 28.07 41.2139 28.93C39.6539 30.15 37.2339 29.87 35.7839 28.51C35.5839 28.32 35.3239 28.18 35.0939 28.03V27.99Z" fill="#FDBA74"/>
<path d="M1.69394 12.01C3.33394 13.31 4.82394 14.81 6.70394 15.83C6.22394 14.25 4.90394 13.2 4.24394 11.75C4.29394 11.71 4.35394 11.67 4.40394 11.63C5.40394 12.97 6.34394 14.36 7.41394 15.64C8.52394 16.96 9.77394 18.17 10.9339 19.45C12.0639 20.7 13.1739 21.98 14.2839 23.25C14.3839 23.19 14.4739 23.13 14.5739 23.08C14.3939 22.58 14.2339 22.06 14.0139 21.57C13.3939 20.18 12.7739 18.78 12.0839 17.43C11.7039 16.69 11.1939 16 10.6939 15.32C9.97394 14.35 9.25394 13.37 8.46394 12.46C7.02394 10.81 5.25394 9.65 3.12394 9.05C2.55394 8.89 2.05394 8.5 1.52394 8.21L1.62394 7.99C2.55394 8.25 3.48394 8.51 4.42394 8.77C4.46394 8.71 4.50394 8.65 4.55394 8.58C4.39394 8.39 4.25394 8.16 4.06394 8C3.36394 7.42 2.64394 6.86 1.94394 6.28C1.77394 6.14 1.66394 5.92 1.52394 5.74C1.56394 5.69 1.59394 5.64 1.63394 5.59C2.10394 5.84 2.57394 6.09 3.04394 6.34L3.18394 6.25C2.87394 5.62 2.56394 4.99 2.25394 4.36C5.08394 7.47 7.42394 11 10.4139 13.96C10.4739 13.93 10.5239 13.9 10.5839 13.87C10.2139 12.94 9.86394 12.01 9.47394 11.09C9.06394 10.12 8.65394 9.14 8.15394 8.22C7.82394 7.62 7.39394 7.06 6.91394 6.56C5.39394 4.99 3.82394 3.46 2.29394 1.9C2.04394 1.65 1.84394 1.35 1.71394 0.98C2.41394 1.58 3.12394 2.17 3.80394 2.79C4.33394 3.27 4.80394 3.81 5.32394 4.3C5.46394 4.43 5.69394 4.46 5.87394 4.54C5.87394 4.32 5.93394 4.08 5.84394 3.9C5.22394 2.61 4.56394 1.33 4.01394 0C5.11394 1.65 6.21394 3.3 7.32394 4.95C7.36394 5 7.52394 4.97 7.77394 4.99C7.55394 3.74 7.34394 2.55 7.12394 1.37C7.19394 1.35 7.26394 1.34 7.32394 1.32C7.83394 5.18 8.90394 8.85 10.9939 12.13C11.0939 12.11 11.1939 12.09 11.2839 12.06C11.0739 9.68 10.8539 7.29 10.6439 4.91C10.7039 4.9 10.7739 4.88 10.8339 4.87C11.0439 5.4 11.2639 5.92 11.4739 6.45H11.7439C11.9439 5.44 12.1539 4.43 12.3539 3.42C12.4439 3.42 12.5439 3.44 12.6339 3.45C12.7439 5.88 12.1539 8.28 12.1439 10.74C13.0839 9.77 13.2339 8.34 14.0839 7.33C14.1539 7.36 14.2239 7.39 14.2939 7.42C14.1139 7.92 13.9039 8.42 13.7539 8.93C13.3039 10.46 12.7739 11.97 12.4639 13.53C12.0839 15.42 12.8839 17.1 13.6739 18.76C14.3539 20.19 14.9139 21.67 15.5839 23.09C16.2739 24.55 17.0339 25.98 17.7839 27.42C17.8439 27.54 18.0339 27.58 18.1639 27.66C18.2139 27.53 18.3239 27.39 18.3039 27.27C18.1439 26.49 17.9639 25.72 17.7739 24.95C17.2339 22.75 16.6739 20.56 16.1439 18.36C16.0239 17.86 16.0039 17.34 15.9439 16.82C16.0039 16.8 16.0639 16.78 16.1239 16.75C16.3539 17.3 16.5639 17.86 16.8039 18.41C16.8839 18.58 17.0439 18.72 17.1639 18.88C17.2439 18.71 17.3639 18.55 17.3939 18.37C17.5439 17.47 17.6739 16.56 17.9339 15.66C17.9839 16.84 18.0339 18.03 18.0739 19.21C18.0739 19.38 18.0439 19.57 18.0939 19.73C18.1439 19.87 18.2939 19.98 18.4039 20.1C18.5039 19.98 18.6439 19.88 18.6939 19.75C18.9439 19.15 19.1739 18.54 19.4239 17.95C19.5039 17.76 19.6539 17.6 19.9239 17.48C19.8739 17.73 19.8539 17.99 19.7739 18.24C19.1739 20.34 18.4339 22.43 18.6039 24.65C18.7239 26.13 19.0939 27.59 19.2639 29.07C19.4939 31.04 20.6939 32.53 21.6939 34.1C22.9639 36.08 24.3939 37.96 25.7639 39.89C25.8639 39.84 25.9639 39.78 26.0639 39.73C24.6639 36.24 23.2539 32.74 21.8539 29.25C21.9239 29.22 21.9939 29.18 22.0539 29.15C22.4939 29.91 22.9339 30.67 23.3739 31.44C23.6939 29.58 22.9139 27.77 23.4239 25.97C23.4939 25.96 23.5539 25.95 23.6239 25.94C23.8539 27.2 24.0839 28.46 24.3439 29.87C25.2639 29.06 24.8339 27.87 25.6739 27.14C25.6939 27.47 25.7639 27.8 25.7139 28.12C25.4539 29.8 25.1439 31.48 24.8839 33.17C24.8339 33.48 24.9239 33.82 25.0139 34.13C25.7639 36.88 26.7239 39.55 28.3839 41.89C29.1739 43.01 30.0939 44.04 30.9839 45.08C31.6339 45.84 32.3239 46.57 33.0039 47.3C33.1339 47.43 33.3039 47.53 33.4539 47.64C33.5039 47.61 33.5539 47.57 33.6039 47.54C33.3239 46.97 33.0939 46.38 32.7639 45.83C31.6539 43.95 30.5139 42.1 29.3939 40.23C28.9739 39.53 28.5439 38.82 28.6139 37.95C28.6839 37.91 28.7439 37.87 28.8139 37.83C29.3639 38.73 29.9239 39.62 30.4739 40.52C30.5239 40.5 30.5839 40.49 30.6339 40.47C30.2939 39.13 29.9539 37.79 29.6039 36.46C29.6739 36.44 29.7439 36.42 29.8039 36.4C30.0839 37.3 30.3639 38.2 30.6439 39.11C30.6839 39.25 30.6939 39.43 30.7839 39.54C30.8839 39.67 31.0539 39.76 31.1939 39.86C31.2639 39.69 31.3939 39.52 31.3839 39.36C31.3639 38.38 31.3039 37.4 31.2839 36.43C31.2839 36.21 31.3639 35.98 31.4139 35.75L31.5939 35.73C31.7139 36.41 31.9339 37.09 31.9439 37.78C32.0039 40.24 32.4339 42.64 33.1639 44.98C33.3139 45.45 33.5739 45.89 33.8439 46.3C34.9139 47.92 35.8739 49.65 37.1339 51.11C38.2539 52.4 39.7139 53.41 41.0639 54.5C41.8739 55.15 42.7539 55.72 43.6439 56.27C41.0939 53.01 38.3639 49.91 36.0939 46.45C36.1439 46.41 36.1939 46.37 36.2439 46.33L38.6839 49.19C38.7539 49.15 38.8139 49.1 38.8839 49.06C38.3139 47.68 37.7539 46.3 37.1839 44.91C37.2039 44.9 37.2339 44.89 37.2539 44.87C37.7139 45.78 38.1139 46.73 38.6439 47.6C39.1539 48.44 39.3739 49.51 40.2539 50.09C40.3239 50.06 40.3939 50.03 40.4739 50C40.2639 48.61 40.0439 47.21 39.8339 45.82C39.9239 45.8 40.0139 45.78 40.1039 45.76C40.3139 46.5 40.5639 47.24 40.7339 47.99C40.9639 48.97 41.1939 49.96 41.3239 50.96C41.5739 52.96 42.7939 54.38 44.0739 55.77C45.0839 56.86 46.1039 57.97 47.2439 58.91C48.4439 59.89 49.7539 60.75 51.0839 61.55C52.4839 62.4 53.9539 63.13 55.3639 63.99C54.4339 63.54 53.4939 63.13 52.5839 62.64C51.3539 61.98 50.1539 61.24 48.9239 60.56C47.0039 59.51 45.0739 58.49 43.1439 57.45C41.5639 56.6 39.8639 56.29 38.0939 56.22C36.5939 56.16 35.1039 56.06 33.6039 55.95C33.3839 55.93 33.1639 55.79 32.9439 55.71C32.9439 55.63 32.9439 55.56 32.9439 55.48H36.2739C36.2939 55.37 36.3139 55.27 36.3439 55.16C36.1739 55.07 36.0139 54.96 35.8239 54.9C34.4539 54.46 33.0739 54.03 31.7039 53.59C31.6639 53.58 31.6439 53.53 31.5839 53.48C32.8139 52.97 33.9039 54.04 35.0839 53.8L35.1939 53.6L31.0339 51.06C34.8439 52.13 37.9039 54.83 41.6439 56.06C41.7039 55.98 41.7539 55.91 41.8139 55.83C41.3739 55.4 40.9539 54.93 40.4839 54.53C39.7239 53.89 38.9639 53.24 38.1339 52.71C36.5039 51.66 34.8439 50.65 33.1739 49.67C32.2639 49.13 31.3339 48.59 30.3539 48.21C29.4039 47.84 28.3739 47.66 27.3639 47.44C26.2439 47.2 25.1139 47.02 24.0039 46.78C23.6739 46.71 23.3639 46.49 23.0439 46.35C23.0639 46.27 23.0839 46.18 23.1139 46.1C23.8839 46.15 24.6639 46.2 25.4339 46.24C25.4639 46.2 25.4939 46.15 25.5239 46.11C25.3739 45.97 25.2539 45.79 25.0839 45.69C23.5539 44.78 22.0139 43.9 20.4839 42.99C20.2439 42.85 20.0639 42.61 19.7439 42.32C21.6839 42.36 22.7539 43.93 24.3439 44.32L24.4739 44.16C23.8339 43.59 23.2039 43.03 22.5739 42.45C22.4339 42.32 22.3439 42.14 22.2339 41.99C22.3039 41.91 22.3739 41.83 22.4439 41.75C22.8639 42 23.3339 42.19 23.7139 42.5C25.1439 43.65 26.4739 44.92 27.9739 45.97C29.1039 46.77 30.4239 47.3 31.6539 47.95C32.1639 48.22 32.6639 48.49 33.1639 48.77C33.1939 48.72 33.2239 48.68 33.2639 48.63C32.5139 47.92 31.7139 47.25 31.0239 46.5C29.3439 44.68 27.4439 43.12 25.4739 41.64C24.6539 41.02 23.7439 40.49 22.8139 40.05C21.2539 39.31 19.6339 38.7 18.0539 37.99C17.0739 37.55 16.1239 37.05 15.1539 36.57C15.1839 36.51 15.2039 36.45 15.2339 36.39C16.3539 36.71 17.4639 37.03 18.5839 37.36C18.6239 37.31 18.6539 37.26 18.6939 37.2C17.2439 35.98 15.7939 34.76 14.3439 33.54C14.3639 33.5 14.3839 33.47 14.4139 33.43L17.8939 35.66C17.9739 35.59 18.0439 35.51 18.1239 35.44C17.9239 35.16 17.7639 34.84 17.5139 34.61C16.8639 33.99 16.1839 33.41 15.6139 32.7C16.8039 33.23 17.7439 34.06 18.5339 35.03C20.0439 36.88 21.9439 38.22 23.9839 39.38C24.0139 39.39 24.0639 39.36 24.1639 39.33C24.1139 39.2 24.0839 39.05 24.0139 38.94C22.6639 36.97 21.5239 34.85 19.7239 33.21C18.1339 31.76 16.4639 30.4 14.5139 29.48C12.6439 28.59 10.7239 27.81 8.84394 26.94C8.28394 26.68 7.77394 26.31 7.29394 25.87C7.86394 25.98 8.43394 26.09 9.00394 26.2C9.04394 26.14 9.07394 26.08 9.11394 26.02L6.09394 23.45C6.13394 23.39 6.17394 23.34 6.21394 23.28C7.63394 24.14 9.05394 25.01 10.4739 25.87C10.5439 25.8 10.6039 25.73 10.6739 25.66C9.78394 24.43 8.88394 23.2 7.99394 21.96C8.03394 21.92 8.08394 21.89 8.12394 21.85C8.95394 22.79 9.80394 23.7 10.5939 24.66C12.0139 26.39 13.4039 28.11 15.4639 29.17C16.4039 29.65 17.1939 30.43 18.0639 31.06C18.2139 31.17 18.3939 31.22 18.5639 31.3C18.6239 31.27 18.6739 31.23 18.7339 31.2C18.6239 30.88 18.5739 30.51 18.3939 30.24C17.0839 28.23 15.8139 26.18 14.3939 24.25C13.3539 22.84 12.2039 21.47 10.8939 20.32C9.98394 19.52 8.75394 19.04 7.61394 18.56C6.38394 18.05 5.05394 17.77 3.95394 16.96C3.89394 16.91 3.83394 16.85 3.82394 16.67L6.68394 17.33C6.71394 17.28 6.73394 17.23 6.76394 17.18C5.01394 15.53 3.26394 13.88 1.51394 12.23L1.68394 12.03L1.69394 12.01Z" fill="#EA580C"/>
<path d="M135.556 14.5697C133.983 12.3133 131.709 11.0764 129.049 10.7923C126.741 10.5248 124.382 10.6753 122.057 10.6251C122.024 10.6251 121.974 10.6753 121.907 10.7254V28.0914C124.6 28.0078 127.192 28.0412 129.768 27.7905C131.775 27.5899 133.582 26.7375 135.004 25.1998C136.225 23.8961 136.877 22.3417 137.028 20.6034C137.228 18.4306 136.81 16.3581 135.556 14.5529V14.5697ZM133.548 23.7123C132.361 25.9854 130.354 27.1554 127.795 27.2891C126.958 27.3392 126.105 27.2891 125.252 27.2891C124.6 27.2891 124.249 27.1052 124.265 26.3197C124.299 21.74 124.265 17.1771 124.265 12.5974V11.8118C126.055 11.3773 127.761 10.8758 129.484 11.5946C132.277 12.7645 133.9 14.9039 134.368 17.9459C134.686 19.9683 134.468 21.9239 133.532 23.7123H133.548Z" fill="#FDBA74"/>
<path d="M98.5902 17.1436C98.2389 13.3161 94.7431 10.0234 90.7957 10.2909C87.2998 10.224 84.3894 11.862 82.8339 14.2688C81.3787 16.5419 81.1278 19.0825 81.5459 21.7233C81.9474 24.2304 83.1851 26.1525 85.393 27.3894C87.3668 28.4925 89.4743 28.5928 91.632 28.0245C94.0573 27.3894 96.1147 26.2361 97.4026 23.963C98.6237 21.8403 98.8076 19.5505 98.5735 17.1436H98.5902ZM94.4086 25.4004C92.0669 28.8602 86.9988 28.3588 85.209 24.9825C84.3727 23.3947 84.0215 21.9239 84.0215 19.3833C83.8876 17.4946 84.3894 15.5892 85.577 13.8844C86.4635 12.5974 87.6511 11.6781 89.123 11.16C90.6619 10.6419 93.4719 11.7951 94.5591 13.3328C95.5293 14.6867 95.9641 16.2578 96.098 17.8791C96.3321 20.5533 95.9641 23.144 94.4086 25.4171V25.4004Z" fill="#FDBA74"/>
<path d="M118.194 17.5115C117.943 15.3052 117.123 13.3998 115.35 11.9624C113.142 10.1573 110.633 9.99016 108.007 10.5083C105.649 11.0097 103.675 12.2466 102.37 14.2857C100.965 16.4919 100.698 18.9823 101.049 21.5229C101.35 23.7793 102.404 25.6011 104.227 26.9048C107.689 29.4119 112.59 28.4425 115.534 25.7515C117.558 23.8963 118.26 21.4393 118.194 18.7316C118.194 18.3305 118.227 17.8959 118.194 17.4948V17.5115ZM113.46 25.9855C112.256 27.4062 110.667 27.9411 108.843 27.6737C105.247 27.189 104.227 24.6484 103.725 21.9742C103.307 19.7345 103.357 17.4781 104.311 15.3052C105.197 13.2828 106.602 11.7117 108.726 11.1936C110.282 10.7924 111.871 11.2939 113.159 12.3636C114.581 13.5503 115.216 15.1715 115.484 16.9432C115.601 17.7121 115.634 18.4809 115.701 19.2498C115.718 21.7569 115.099 24.0467 113.46 25.9855Z" fill="#FDBA74"/>
<path d="M75.8422 20.7539H78.0334C78.0668 20.9545 78.117 21.155 78.117 21.3556C78.117 23.1942 78.117 25.0494 78.117 26.888C78.117 27.2724 78.0501 27.5064 77.6319 27.6234C73.6343 28.7098 69.7538 28.8268 66.191 26.303C64.2508 24.9324 63.2806 22.9769 63.0632 20.6703C62.8123 17.9794 63.5148 15.5057 65.3714 13.5C66.8434 11.9122 68.7167 10.8926 70.841 10.458C72.7478 10.0736 74.6546 10.1906 76.5447 10.6586C77.7825 10.9595 77.7657 10.9762 77.4312 12.2464C75.9426 11.8787 74.4539 11.511 72.9652 11.1266C71.2592 10.6753 69.8541 11.3773 68.5996 12.3802C66.4587 14.1017 65.5722 16.3915 65.5889 19.1326C65.5889 21.2219 65.8063 23.1942 67.111 24.9324C68.2317 26.4534 69.737 27.3393 71.5769 27.5733C72.7143 27.707 73.8852 27.5733 75.0561 27.6067C75.7418 27.6067 75.8756 27.2724 75.8589 26.6874C75.8255 24.9993 75.8589 23.3112 75.8589 21.623C75.8589 21.3723 75.8589 21.1049 75.8589 20.7706L75.8422 20.7539Z" fill="#FDBA74"/>
<path d="M208.5 27.9577V10.6419H218.853C218.786 11.0764 218.72 11.4609 218.653 11.9456C217.465 11.7617 216.311 11.6447 215.19 11.3773C213.852 11.0597 212.581 11.2101 211.276 11.4776C210.841 11.5611 210.708 11.8286 210.724 12.2631C210.741 14.1351 210.741 16.0071 210.724 17.8791C210.724 18.3972 210.925 18.5476 211.41 18.5476C212.966 18.5309 214.538 18.5476 216.093 18.5476C216.545 18.5476 216.813 18.6479 216.595 19.2663C215.006 19.2663 213.367 19.2663 211.728 19.2663C211.07 19.2663 210.735 19.6062 210.724 20.2859C210.724 22.3584 210.724 24.4477 210.724 26.5202C210.724 26.8044 210.741 27.0718 210.758 27.4061C213.518 27.1387 216.211 26.888 219.004 26.6038C218.92 27.1387 218.87 27.5398 218.803 27.9744H208.483L208.5 27.9577Z" fill="#FDBA74"/>
<path d="M167.988 9.98999C165.312 16.0906 162.719 22.0074 160.144 27.9242C160.913 28.1916 161.214 27.8741 161.398 27.3392C161.883 26.1191 162.351 24.8822 162.887 23.6955C163.004 23.4615 163.372 23.2108 163.623 23.2108C166.048 23.1774 168.457 23.1774 170.882 23.2108C171.099 23.2108 171.434 23.4448 171.534 23.6621C172.086 24.8655 172.555 26.0857 173.09 27.3058C173.207 27.5732 173.458 27.9744 173.692 28.0078C174.378 28.0914 175.064 28.0245 175.917 28.0245C173.257 21.9907 170.664 16.0906 168.005 10.0067L167.988 9.98999ZM163.489 22.3918C164.743 19.4 165.931 16.5085 167.135 13.6337H167.369C168.54 16.5085 169.728 19.4167 170.949 22.3918H163.489Z" fill="#FDBA74"/>
<path d="M178.576 26.6874C179.73 27.005 180.851 27.3393 182.005 27.6401C183.092 27.9075 184.163 27.7404 185.2 27.356C186.404 26.9047 187.04 25.9687 187.24 24.7486C187.458 23.3613 187.056 22.1412 185.869 21.3389C184.313 20.2859 182.641 19.4168 181.085 18.3471C179.178 17.0434 178.125 15.2717 178.911 13.2994C179.63 11.4609 181.119 10.4747 183.092 10.3076C184.949 10.1405 186.755 10.458 188.579 11.043C188.512 11.4776 188.445 11.9121 188.378 12.3467C187.09 11.9623 185.886 11.5946 184.665 11.277C184.046 11.1266 183.393 11.043 182.758 11.0096C181.754 10.9594 181.068 11.5444 180.834 12.5306C180.399 14.319 181.169 15.6394 182.524 16.6255C183.962 17.6618 185.551 18.4975 187.04 19.4669C188.06 20.1355 188.93 20.9712 189.432 22.1245C190.017 23.4449 189.666 25.2333 188.712 26.3197C186.906 28.3588 184.581 28.4925 182.156 28.2084C181.119 28.0914 180.098 27.7237 179.078 27.473C178.626 27.356 178.426 27.1053 178.626 26.6707L178.576 26.6874Z" fill="#FDBA74"/>
<path d="M153.47 27.9744H151.212V11.628C149.305 10.8257 147.599 11.8286 145.742 11.979C145.675 11.5444 145.625 11.1266 145.558 10.6419H159.09C159.04 11.0764 159.006 11.4943 158.939 12.0291C157.919 11.8119 156.982 11.6113 156.029 11.394C155.828 11.3439 155.627 11.3104 155.41 11.2937C153.587 11.1934 153.453 11.3439 153.453 13.1323C153.453 17.7621 153.453 22.3752 153.453 27.005V27.9577L153.47 27.9744Z" fill="#FDBA74"/>
<path d="M197.544 27.9577C197.544 27.6067 197.544 27.3058 197.544 27.005C197.544 22.1412 197.527 17.2941 197.561 12.4303C197.561 11.5612 197.176 11.2937 196.49 11.3606C195.286 11.4776 194.098 11.6782 192.894 11.862C192.626 11.8954 192.342 11.979 192.007 12.0459V10.6586H205.355C205.322 11.0932 205.288 11.511 205.255 12.0459C204.285 11.8453 203.365 11.6447 202.428 11.4442C202.244 11.4107 202.077 11.3439 201.893 11.3272C200.053 11.16 199.802 11.394 199.802 13.1824C199.802 17.8122 199.802 22.4253 199.802 27.0551C199.802 27.3393 199.802 27.6234 199.802 27.9577H197.527H197.544Z" fill="#FDBA74"/>
<path d="M157.601 45.4907C156.581 46.5938 155.627 47.7471 154.523 48.7332C154.155 49.0508 153.353 49.1344 152.884 49.0007C152.566 48.9004 152.382 48.165 152.282 47.697C152.215 47.3126 152.332 46.878 152.399 46.4768C152.483 45.8751 152.65 45.357 153.185 44.889C153.871 44.2873 154.406 43.485 154.925 42.7329C155.042 42.5658 154.925 42.2315 154.908 41.964C154.657 42.0309 154.339 42.0142 154.206 42.1646C153.754 42.6326 153.235 43.1006 153.035 43.6856C152.633 44.889 151.814 45.6244 150.777 46.1927C150.509 46.3431 150.292 46.5771 150.041 46.7443C149.439 47.1788 148.82 47.5967 148.201 48.0313C148.134 47.9811 148.084 47.931 148 47.8808C148.167 46.5604 148.318 45.2233 148.502 43.719C148.234 43.953 148.1 44.0366 148.017 44.1369C147.465 44.9559 146.963 45.7749 146.378 46.5771C146.21 46.8278 145.876 46.9616 145.458 47.2624C145.408 45.8919 145.725 44.8556 146.21 43.8862C146.896 42.4989 147.298 42.315 148.719 42.6326C148.05 41.9473 147.549 41.8638 146.98 42.5156C146.394 43.2009 145.959 44.0366 145.474 44.8222C144.789 45.9086 144.253 47.0953 143.467 48.0981C142.748 49.0341 141.995 48.8001 141.627 47.697C141.56 47.4797 141.51 47.2457 141.46 47.0117C141.343 46.3097 141.243 45.6077 141.109 44.7553C140.155 45.8584 139.603 47.0284 138.449 47.7805C138.338 47.0897 138.511 46.1704 138.968 45.0227C139.537 43.6187 140.222 43.3012 141.577 43.8527C140.891 42.9669 140.055 42.9502 139.403 43.8026C139.085 44.2372 138.834 44.7219 138.55 45.1899C137.412 47.0451 136.292 48.9338 135.087 50.7724C134.887 51.0899 134.402 51.2069 134.034 51.4075C133.967 51.0565 133.833 50.6888 133.816 50.3378C133.799 50.0537 133.833 49.7695 133.916 49.4854C134.251 48.0814 134.602 46.6941 134.937 45.2901C135.037 44.8723 135.071 44.421 135.154 44.0032C134.753 44.1703 134.318 44.3374 133.933 44.538C133.431 44.8054 132.963 45.2066 132.227 44.8556C132.428 44.4712 132.612 44.1536 132.762 43.8026C133.08 43.0672 133.398 42.3318 133.666 41.5963C133.732 41.4292 133.649 41.0782 133.498 40.9946C133.364 40.9111 133.047 40.9946 132.896 41.1116C132.511 41.4292 132.11 41.7468 131.859 42.1479C131.357 42.9167 130.956 43.719 131.441 44.6884C131.508 44.8389 131.324 45.1063 131.274 45.3236C132.394 45.1564 133.515 44.9893 134.719 44.8054C134.669 45.0896 134.602 45.4406 134.535 45.7749C134.184 47.2791 133.799 48.7834 133.482 50.2877C133.364 50.8225 133.364 51.5078 133.967 51.6916C134.251 51.7752 134.836 51.4075 135.087 51.0899C135.873 50.1372 136.576 49.1177 137.295 48.1148C137.513 47.7973 137.697 47.5131 138.132 47.8975C138.249 47.9978 138.683 47.9143 138.834 47.7805C139.386 47.229 139.871 46.6273 140.39 46.0423C140.49 45.942 140.657 45.8918 140.791 45.825C141.059 46.6607 141.209 47.463 141.527 48.1817C141.912 49.0341 142.547 49.1511 143.25 48.5327C143.818 48.0145 144.32 47.4128 144.872 46.8446C145.508 47.6134 145.592 47.6301 146.261 46.9281C146.545 46.6273 146.779 46.2763 147.047 45.9587C147.214 45.7414 147.448 45.5576 147.766 45.2567C147.783 47.1621 147.632 48.6664 146.177 49.9367C144.002 51.8254 142.397 54.1653 141.343 56.8563C140.741 58.4107 140.256 60.0487 140.791 61.6867C141.243 63.0907 142.046 63.4249 143.099 62.3719C143.635 61.8204 144.069 61.1518 144.421 60.4832C146.127 57.1739 146.863 53.5469 147.532 49.9032C147.682 49.1511 147.816 48.4825 148.552 48.048C149.104 47.7304 149.572 47.229 150.091 46.878C150.66 46.4768 151.262 46.1426 151.981 45.6913C151.981 46.5771 151.864 47.2457 151.998 47.8641C152.132 48.399 152.449 49.0341 152.868 49.2681C153.252 49.4687 154.022 49.3182 154.423 49.0341C155.31 48.3823 156.112 47.58 156.865 46.7777C157.367 46.2596 157.752 45.6244 158.17 45.0394C157.885 45.1063 157.752 45.2734 157.601 45.4406V45.4907ZM133.381 41.5295C132.93 42.5323 132.461 43.5352 131.943 44.6717C131.341 43.5686 132.06 41.9306 133.381 41.5295ZM146.695 52.3602C146.11 55.1013 145.424 57.8424 144.153 60.383C143.818 61.0682 143.317 61.6867 142.798 62.2382C142.163 62.9235 141.51 62.8065 141.243 61.8872C141.025 61.202 140.925 60.3997 141.008 59.681C141.36 56.7894 142.798 54.3659 144.638 52.1764C145.357 51.2905 146.16 50.4882 146.913 49.6692C146.997 49.686 147.08 49.7361 147.181 49.7528C147.013 50.6219 146.863 51.4911 146.679 52.3602H146.695ZM130.237 46.7944C129.551 47.5298 128.832 48.2485 128.029 48.867C127.376 49.3684 126.39 49.2012 126.122 48.6497C125.62 47.5967 125.955 45.825 126.741 44.9559C127.376 44.2539 127.979 43.5017 128.531 42.7329C128.664 42.5323 128.531 42.1479 128.514 41.73C127.259 42.4822 126.925 42.9502 126.206 44.7052C125.854 45.591 124.951 46.1593 123.847 46.1426C122.86 46.1426 122.442 45.7916 122.041 44.6717C121.974 44.5046 121.873 44.3542 121.74 44.0366C121.639 44.3542 121.572 44.4879 121.556 44.6216C121.054 46.7443 120.167 48.6831 118.578 50.2208C118.361 50.4381 117.993 50.4882 117.692 50.6052C117.608 50.3211 117.391 50.0202 117.441 49.7695C117.658 48.3154 117.943 46.8947 118.244 45.4573C118.361 44.9057 118.528 44.3876 118.712 43.7357C118.076 44.6884 117.591 45.5576 116.973 46.3097C116.237 47.1956 115.417 48.048 114.514 48.7667C114.112 49.0842 113.343 49.1678 112.858 49.0007C112.54 48.8837 112.339 48.165 112.306 47.697C112.206 46.527 112.557 45.4907 113.477 44.6383C114.029 44.1536 114.464 43.5185 114.865 42.9C115.016 42.6827 114.882 42.2983 114.882 41.9808C114.614 42.0643 114.263 42.081 114.129 42.2482C113.627 42.8666 113.042 43.485 112.824 44.2204C112.323 45.8417 111.369 47.0618 110.031 47.9978C109.529 48.3488 108.994 48.633 108.476 48.9672C108.425 48.9004 108.358 48.8335 108.308 48.7667C108.425 48.5494 108.542 48.3321 108.626 48.0981C108.877 47.3627 109.178 46.644 109.295 45.8919C109.379 45.2066 108.894 44.9224 108.325 45.357C107.773 45.8083 107.321 46.3766 106.87 46.9281C106.502 47.3627 106.201 47.8641 105.816 48.3823C105.749 48.1984 105.716 48.1483 105.732 48.1148C106.234 45.7581 106.636 43.4015 107.271 41.0949C107.622 39.8246 108.358 38.6714 108.894 37.4345C109.446 36.1308 109.981 34.8271 110.466 33.49C110.633 33.0554 110.867 32.5206 110.282 32.1362C109.546 32.7546 108.91 33.6404 108.459 35.4455C107.104 40.8776 105.866 46.3264 104.578 51.7585C104.578 51.8254 104.645 51.9256 104.762 52.1764C104.93 51.7084 104.996 51.3741 105.147 51.1066C105.264 50.9061 105.465 50.7222 105.649 50.6052C107.054 49.8698 108.509 49.2012 109.897 48.4324C110.583 48.0313 111.168 47.463 111.971 46.8278C112.005 47.3961 112.022 47.697 112.038 47.9978C112.122 49.3517 113.259 49.9868 114.397 49.2514C115.016 48.8503 115.517 48.2653 116.069 47.7471C116.521 47.346 116.956 46.9448 117.374 46.5437C117.491 46.9448 117.441 47.2123 117.391 47.4797C117.274 48.1817 117.073 48.9004 117.073 49.6191C117.073 50.0369 117.274 50.5384 117.558 50.8392C117.675 50.9562 118.277 50.6721 118.628 50.5049C118.846 50.3879 119.013 50.1707 119.18 49.9868C120.251 48.8001 120.97 47.3961 121.505 45.9086C121.673 45.4239 121.924 45.3236 122.292 45.7247C123.161 46.644 123.73 46.761 124.901 46.293C125.135 46.2094 125.403 46.176 125.704 46.0924C125.67 46.7777 125.603 47.3293 125.637 47.8808C125.654 49.0508 126.942 50.2375 128.112 49.1344C129.183 48.1315 130.186 47.0786 131.19 46.0089C131.307 45.8919 131.223 45.6077 131.257 45.4071C130.922 45.8918 130.638 46.41 130.253 46.8111L130.237 46.7944ZM109.998 32.9384C110.098 32.9886 110.198 33.022 110.299 33.0721C109.747 34.4594 109.178 35.8467 108.626 37.234C108.542 37.2172 108.459 37.1671 108.358 37.1337C108.626 35.6294 109.195 34.2588 109.998 32.9384ZM105.816 50.1205C105.732 48.8503 107.84 45.7247 108.877 45.6411C109.044 47.4463 107.606 49.5188 105.816 50.1205ZM88.3536 34.0081C88.2198 34.0081 88.086 33.9914 87.9689 33.9747C86.0955 37.0835 85.6272 40.6938 84.6069 44.2037C84.3894 44.0533 84.1887 44.0032 84.1051 43.8694C83.7538 43.2343 83.2353 43.2343 82.7502 43.6355C82.2819 44.0199 81.847 44.4712 81.4456 44.9392C80.7263 45.7749 79.9235 46.4768 78.8028 46.6941C78.1505 46.8278 77.9999 46.6273 77.9832 45.9587C77.9832 45.3737 77.8661 44.7553 77.6654 44.2037C77.4981 43.7692 77.08 43.7525 76.7287 44.0867C76.0931 44.655 75.5077 45.2734 74.8386 45.7749C74.3535 46.1259 73.8016 46.4434 73.2496 46.6273C72.43 46.9114 72.3631 46.7944 72.3296 45.9754C72.3129 45.4406 72.2627 44.889 72.0955 44.3876C71.878 43.7525 71.4933 43.719 70.9915 44.1703C70.8076 44.3374 70.5901 44.4879 70.3894 44.6383C69.2018 45.4907 69.0011 47.2123 70.0716 47.9978C70.3225 48.1984 71.025 48.2485 71.1421 48.0647C71.7944 47.229 72.6642 46.9448 73.651 46.8111C73.8685 46.7777 74.0692 46.6106 74.2867 46.5103C74.5041 46.41 74.7048 46.293 74.9724 46.1593C75.0226 46.5103 75.0226 46.761 75.0728 46.9783C75.307 48.0647 76.344 48.6664 76.9796 47.9978C77.6654 47.2457 78.4181 46.9448 79.338 46.8278C79.5555 46.7944 79.7395 46.6106 79.9569 46.5103C80.1409 46.4434 80.3583 46.41 80.5089 46.3766C80.5591 47.112 80.5256 47.7471 80.6762 48.3488C80.81 48.9338 81.3787 49.0675 81.8303 48.6497C82.1983 48.2987 82.5161 47.8975 82.8506 47.4964C83.2353 47.0117 83.5866 46.527 83.9713 46.0256C84.0382 46.0423 84.0883 46.0924 84.1552 46.1258C83.8374 49.6191 82.8004 53.0622 83.0346 56.6223C83.3022 56.4552 83.5029 56.2212 83.4862 56.0206C83.4695 55.5192 83.2186 55.001 83.2687 54.4996C83.5866 52.1429 83.9378 49.803 84.356 47.463C84.6403 45.8584 84.9079 44.2539 85.577 42.6995C86.6308 40.2425 87.4169 37.6685 88.2867 35.1447C88.4038 34.7937 88.3034 34.3591 88.3034 33.9747L88.3536 34.0081ZM71.5937 47.1287C71.3261 47.3961 71.025 47.7137 70.6737 47.8307C70.5065 47.8808 70.1218 47.6134 69.9712 47.3961C69.5865 46.8111 69.8541 45.708 70.3392 45.2567C70.7406 45.7581 71.1086 46.2261 71.4599 46.6941C71.5435 46.8111 71.6271 47.0786 71.577 47.1287H71.5937ZM71.7108 46.3599C71.4933 46.0423 71.1755 45.7414 71.1086 45.3904C71.0417 45.0227 71.2424 44.6049 71.3261 44.2037C71.4766 44.2037 71.6271 44.2372 71.761 44.2539C71.8446 44.9057 71.9282 45.5576 72.0286 46.2094C71.9282 46.2596 71.8111 46.3097 71.7108 46.3599ZM75.9258 47.7638C75.2735 47.3293 75.307 46.2094 76.0095 45.2066C76.4611 45.8083 76.896 46.41 77.3643 47.0618C76.8458 47.8641 76.3942 48.0814 75.9091 47.7638H75.9258ZM77.1301 44.2539C77.2138 44.2539 77.3141 44.2372 77.3978 44.2372C77.4814 44.889 77.565 45.5409 77.6487 46.2596C76.5782 45.7916 76.4276 45.0394 77.1301 44.2706V44.2539ZM83.5364 45.8919C83.0011 46.6106 82.5161 47.3627 81.9474 48.0647C81.7801 48.282 81.4456 48.3321 81.1947 48.4658C81.0776 48.1984 80.9605 47.9143 80.8769 47.7638C81.0943 46.2094 81.5459 44.9224 82.7502 44.0533C83.436 43.5519 83.6367 43.7023 83.8542 44.5046C84.0047 45.0896 83.8542 45.474 83.5364 45.9086V45.8919ZM86.2795 40.4765C86.2795 40.4765 86.129 40.4263 86.0621 40.4096C86.3464 38.6212 86.9988 36.9164 87.6678 35.245C87.7682 35.2617 87.8685 35.2951 87.9689 35.3118C87.4169 37.0334 86.8482 38.7717 86.2795 40.4765ZM67.847 41.6131C68.4993 40.0252 69.1182 38.4039 69.7371 36.7994C69.804 36.6322 69.6367 36.3983 69.5865 36.1977C69.3691 36.2813 69.068 36.3147 68.9342 36.4651C68.6833 36.7492 68.4826 37.1002 68.3655 37.4512C67.7132 39.5238 67.0608 41.5796 66.4754 43.6689C66.3081 44.304 66.0238 44.655 65.3213 44.6049C65.0202 44.5882 64.7191 44.6717 64.4348 44.7219C64.4348 44.7887 64.4348 44.8723 64.4348 44.9392C64.9366 44.9559 65.4384 44.9726 65.9736 45.006C65.9736 45.2734 66.0071 45.474 65.9736 45.6579C65.706 46.878 65.3715 48.0647 65.1373 49.2681C64.4013 52.9118 63.7155 56.5554 63.013 60.1991C62.9796 60.4164 63.0465 60.6337 63.0799 60.851C63.1468 60.851 63.2305 60.851 63.2974 60.8677C63.381 60.6003 63.5315 60.3663 63.565 60.1155C63.6654 59.2297 63.5984 58.3271 63.7824 57.458C64.6188 53.4299 65.522 49.4018 66.375 45.357C66.4587 44.9559 66.6092 44.8054 67.0274 44.7887C67.6797 44.7386 68.332 44.5882 69.0011 44.4879C69.0011 44.4043 68.9844 44.3207 68.9676 44.2372C68.2484 44.304 67.5124 44.3542 66.6427 44.421C66.7765 43.8862 66.8099 43.485 66.9939 43.134C67.2448 42.5825 67.6463 42.1312 67.8804 41.5796L67.847 41.6131ZM68.9676 36.883C69.068 36.9164 69.1851 36.9498 69.2854 37C69.1182 38.3872 68.4324 39.5739 67.8804 40.8275C67.7633 40.7941 67.663 40.7606 67.5626 40.7105C68.031 39.4402 68.4993 38.1699 68.9676 36.883ZM99.3261 45.9086C99.2592 45.7916 98.9916 45.7916 98.8076 45.7414C98.7574 45.8083 98.7073 45.8584 98.6738 45.942C99.3094 46.2094 99.0752 46.6106 98.8244 46.878C98.4396 47.2791 97.988 47.6301 97.5364 47.9811C97.1684 48.2653 96.8506 48.1984 96.7335 47.7137C96.583 47.0953 96.5161 46.4434 96.3656 45.825C96.0979 44.7887 96.3823 43.9697 97.0514 43.134C97.5866 42.4655 97.9379 41.6298 98.2222 40.8108C98.3393 40.4932 98.0215 40.0419 97.9044 39.6408C97.5531 39.8079 97.135 39.8748 96.8841 40.1255C96.031 40.9111 95.9976 42.0142 95.9809 43.0839C95.9641 43.9196 95.73 44.5882 95.0943 45.2066C94.2078 46.0757 93.405 47.0284 92.6356 47.9978C92.4181 48.2653 92.3178 48.8503 92.4683 49.1344C92.6188 49.4018 93.1708 49.6525 93.5053 49.6191C94.3918 49.5021 95.2783 49.2848 96.1147 49.0007C96.6165 48.8335 96.8841 48.867 97.1182 49.3517C97.3022 49.7361 97.5866 50.0704 97.8208 50.4214C97.8877 50.3879 97.9379 50.3545 97.988 50.3044C97.8208 50.0202 97.6702 49.7194 97.4862 49.452C97.0681 48.8502 97.135 48.4825 97.8208 48.048C98.4229 47.6803 98.8578 47.0618 99.3261 46.5103C99.4265 46.3933 99.393 46.059 99.3261 45.8919V45.9086ZM97.7873 40.0252C98.0884 41.4125 97.1852 42.2816 96.4325 43.485C96.215 41.613 96.767 40.2926 97.7873 40.0252ZM96.1481 48.5828C95.362 48.8502 94.5926 49.0842 93.7897 49.2514C93.5053 49.3182 92.9199 49.1845 92.9032 49.0675C92.8363 48.75 92.8865 48.282 93.0704 48.0313C93.8566 47.0117 94.7264 46.0757 95.7132 44.9392C95.9976 46.176 96.2318 47.1454 96.4157 48.1148C96.4325 48.2485 96.2819 48.5494 96.1481 48.5828Z" fill="#FDBA74"/>
</svg>
