<svg width="32" height="32" viewBox="0 0 32 32" fill="none" xmlns="http://www.w3.org/2000/svg">
<path d="M15.9946 29.2959C12.5659 29.2959 9.13716 29.3021 5.70844 29.2938C3.71212 29.2897 2.69132 28.2545 2.68721 26.2315C2.67486 19.4069 2.66868 12.5845 2.66663 5.75994C2.66663 3.73892 3.67713 2.68108 5.67962 2.67696C12.5721 2.66256 19.4645 2.66256 26.3549 2.68108C28.3265 2.6852 29.3329 3.71628 29.3329 5.66732C29.335 12.5248 29.3288 19.3822 29.3164 26.2417C29.3123 28.2504 28.2956 29.2794 26.2808 29.2897C22.8521 29.3062 19.4233 29.2938 15.9946 29.2938V29.2959ZM16.8425 24.6118C16.7643 24.5706 16.6882 24.5294 16.61 24.4883C16.61 25.2354 16.6491 25.9845 16.5997 26.7295C16.5524 27.4437 16.8034 27.6803 17.5279 27.6721C20.4071 27.6371 23.2863 27.6639 26.1655 27.6556C27.3284 27.6536 27.6535 27.3531 27.6556 26.2047C27.6659 19.3843 27.6659 12.5618 27.6556 5.74142C27.6556 4.61771 27.3675 4.35222 26.2355 4.35017C23.2534 4.33988 20.2713 4.34605 17.2891 4.35017C17.0957 4.35017 16.9022 4.39956 16.6882 4.42632V7.26026C17.1739 7.65953 17.4867 7.91678 17.8016 8.1761C17.46 8.51362 17.1183 8.85114 16.6779 9.28539V12.3478C17.1759 12.8088 17.4929 13.101 17.8119 13.3953C17.4661 13.6917 17.1224 13.986 16.6573 14.3832V17.4847C17.1471 17.956 17.4785 18.275 17.8098 18.594C17.4579 18.8945 17.108 19.195 16.6964 19.5469V22.7472C17.1986 23.1649 17.4991 23.4181 17.8016 23.6692L16.8446 24.6097L16.8425 24.6118ZM15.1323 17.6967C15.2105 17.7173 15.2866 17.7358 15.3649 17.7564V14.4161C14.8545 13.9654 14.5334 13.6814 14.2123 13.3995C14.5663 13.0969 14.9224 12.7923 15.3772 12.4034V9.19278C14.9059 8.83879 14.556 8.57536 14.2062 8.31399C14.556 7.97647 14.9059 7.63689 15.3546 7.20264V4.40985C14.9594 4.38721 14.624 4.35017 14.2905 4.35017C11.5142 4.34605 8.7379 4.34399 5.96158 4.34811C4.61355 4.34811 4.3954 4.55597 4.3954 5.89371C4.39746 12.6462 4.40775 19.4008 4.42009 26.1532C4.42215 27.3963 4.65677 27.6268 5.94717 27.6351C8.20898 27.6515 10.4728 27.6453 12.7347 27.6495C14.7584 27.6522 15.6331 26.6746 15.3587 24.7167C14.8936 24.3113 14.5478 24.0088 14.2041 23.7062C14.5643 23.4201 14.9244 23.132 15.3566 22.7904V19.6354C14.8277 19.1517 14.5169 18.8677 14.2082 18.5837C14.5169 18.2894 14.8236 17.993 15.1323 17.6987V17.6967Z" fill="#FDBA74"/>
<path d="M25.8198 13.9839V14.9018H19.0858C19.0673 14.6281 19.0467 14.3462 19.022 13.9839H25.8198Z" fill="#FDBA74"/>
<path d="M18.8142 6.87129C21.2241 6.87129 23.2637 6.85071 25.3032 6.90216C25.5234 6.90833 25.7313 7.32818 25.9453 7.55457C25.8857 7.65129 25.828 7.74802 25.7683 7.84475C23.6959 7.84475 21.6234 7.86533 19.553 7.81182C19.3554 7.80771 19.1723 7.34259 18.8142 6.87129Z" fill="#FDBA74"/>
<path d="M25.8116 10.4276C25.828 10.7178 25.8445 10.9751 25.863 11.3167H19.1023C19.0797 11.0553 19.055 10.7754 19.0241 10.4276H25.8116Z" fill="#FDBA74"/>
<path d="M19.2196 17.5609H25.7951V18.5487C23.6897 18.5487 21.646 18.5714 19.6045 18.5158C19.3678 18.5096 19.1435 18.063 18.915 17.8202C19.0159 17.7337 19.1188 17.6473 19.2196 17.5609Z" fill="#FDBA74"/>
<path d="M25.8445 22.0474H19.0879V21.1439H25.8013C25.8136 21.4177 25.826 21.6975 25.8424 22.0474H25.8445Z" fill="#FDBA74"/>
<path d="M18.9767 25.3485C19.2175 25.1304 19.4522 24.7291 19.6971 24.7208C21.5123 24.6694 23.3316 24.6817 25.1489 24.7188C25.3711 24.7229 25.5893 24.9966 25.8074 25.1448C25.614 25.3177 25.4246 25.6346 25.2291 25.6387C23.2143 25.6758 21.1974 25.6614 19.1826 25.6614C19.1146 25.5564 19.0447 25.4535 18.9767 25.3485Z" fill="#FDBA74"/>
<path d="M12.8746 6.93303V14.9018H6.2353V6.93303H12.8746ZM10.7836 13.418C10.8927 13.3233 11.0018 13.2307 11.1088 13.136C9.44381 12.7882 9.85955 11.5246 10.1292 10.8722C10.4584 10.0757 11.436 9.54677 12.3169 8.73178H6.87536C8.31188 10.0983 10.4276 11.1521 8.15135 13.4159H10.7816L10.7836 13.418Z" fill="#FDBA74"/>
<path d="M6.25383 17.5732C8.30365 17.5732 10.3535 17.5526 12.4012 17.6041C12.6071 17.6082 12.8026 18.0445 13.0043 18.2791C12.9405 18.3676 12.8746 18.4561 12.8108 18.5467C10.761 18.5467 8.71115 18.5672 6.66338 18.5158C6.45757 18.5096 6.26206 18.0712 6.06242 17.8346C6.12622 17.7481 6.19003 17.6617 6.25383 17.5753V17.5732Z" fill="#FDBA74"/>
<path d="M6.22913 22.0392V21.2304C6.31556 21.1892 6.37525 21.1378 6.43699 21.1357C8.35716 21.1254 10.2773 21.1398 12.1954 21.1048C12.9137 21.0925 12.9981 21.4156 12.8149 22.0392H6.22913Z" fill="#FDBA74"/>
<path d="M12.7943 24.7579C13.0248 25.3959 12.9055 25.6964 12.1975 25.684C10.4173 25.6531 8.635 25.6573 6.85478 25.6696C6.16739 25.6758 6.04596 25.363 6.25383 24.7579H12.7943Z" fill="#FDBA74"/>
</svg>
