<svg width="32" height="32" viewBox="0 0 32 32" fill="none" xmlns="http://www.w3.org/2000/svg">
<path d="M2.66663 18.1499V16.602H4.71643C4.94333 15.5983 5.0837 14.6541 5.37213 13.7542C6.56433 10.043 9.07947 7.61826 12.7657 6.43569C13.6867 6.13956 14.6251 6.02996 14.2001 4.66663H17.8594C17.4094 6.08957 18.4247 6.12225 19.315 6.42992C23.7319 7.95285 26.3393 11.0372 27.0874 15.6675C27.1316 15.9482 27.1816 16.227 27.2431 16.5943H29.3333V18.148H2.66663V18.1499ZM25.5164 16.5424C25.6971 11.8236 20.9072 7.37021 15.8654 7.49328C10.8351 7.61634 6.1586 12.1313 6.56241 16.5424H25.5164Z" fill="#FDBA74"/>
<path d="M27.272 24.5128C26.2682 25.4396 25.1972 26.4318 24.1415 27.4048C24.0242 27.3568 23.9473 27.3491 23.9107 27.3068C22.434 25.5242 20.4899 25.1243 18.3132 25.4204C14.9808 25.8723 12.2119 24.8724 10.0121 22.2899C9.49674 21.6861 8.76989 21.2631 8.26993 20.6497C8.04303 20.3709 8.13341 19.8325 8.08149 19.4133C8.48337 19.4306 8.99679 19.2941 9.26791 19.4902C10.0909 20.0921 10.8716 20.7728 11.5735 21.5131C12.5599 22.5553 13.779 22.8668 15.1308 22.888C15.7711 22.8976 16.4134 22.9129 17.0518 22.8745C17.6133 22.8418 18.4959 23.111 18.4978 22.2303C18.4978 21.2939 17.5863 21.5612 16.996 21.5362C16.1019 21.4977 15.2039 21.5208 14.3078 21.5285C13.7771 21.5323 13.3098 21.415 13.281 20.7901C13.2502 20.0978 13.7367 19.9632 14.3117 19.9632C16.648 19.9671 18.9881 19.8959 21.3206 20.0017C22.1378 20.0382 23.105 20.3074 23.705 20.8189C24.9799 21.9092 26.0586 23.2283 27.2739 24.5109L27.272 24.5128Z" fill="#FDBA74"/>
</svg>
